<?xml version="1.0" encoding="utf-8"?>
<!-- Svg Vector Icons : http://www.onlinewebfonts.com/icon -->
<!DOCTYPE svg PUBLIC "-//W3C//DTD SVG 1.1//EN" "http://www.w3.org/Graphics/SVG/1.1/DTD/svg11.dtd">
<svg version="1.1" xmlns="http://www.w3.org/2000/svg" xmlns:xlink="http://www.w3.org/1999/xlink" x="0px" y="0px" viewBox="0 0 1000 1000" fill="white" xml:space="preserve">
<metadata> Svg Vector Icons : http://www.onlinewebfonts.com/icon </metadata>
<g><g transform="translate(0.000000,511.000000) scale(0.100000,-0.100000)"><path d="M2204,4973.4c-623-132.7-1118.3-635.7-1248.5-1268.9c-51.1-245.1-51.1-403.4,0-648.5c89.4-441.7,209.4-607.6,990.6-1386.3l602.5-600l1154,1156.5l1156.5,1154l-600,602.5c-329.3,329.3-671.5,651-755.7,714.9C3120.6,4973.4,2663.6,5070.4,2204,4973.4z"/>
<path d="M7118.7,4975.9c-214.5-43.4-426.4-137.9-623-278.3c-84.2-63.8-426.3-385.5-755.7-714.9l-600-602.5l1156.5-1154l1154-1156.5l602.5,600c329.4,329.3,651,671.5,714.9,755.7c145.5,201.7,234.9,411,280.8,643.4c46,242.5,46,395.7-5.1,638.3C8865,4585.3,8004.6,5154.6,7118.7,4975.9z"/>
</g></g>
</svg>